<svg xmlns="http://www.w3.org/2000/svg" viewBox="0 0 1440 320">
  <rect width="100%" height="100%" fill="#fbfcfd"/>
  <path fill="#11181c" fill-opacity="1"
        d="M0,0L30,0C60,0,120,0,180,5.3C240,11,300,21,360,64C420,107,480,181,540,197.3C600,213,660,171,720,154.7C780,139,840,149,900,181.3C960,213,1020,267,1080,250.7C1140,235,1200,149,1260,128C1320,107,1380,149,1410,170.7L1440,192L1440,320L1410,320C1380,320,1320,320,1260,320C1200,320,1140,320,1080,320C1020,320,960,320,900,320C840,320,780,320,720,320C660,320,600,320,540,320C480,320,420,320,360,320C300,320,240,320,180,320C120,320,60,320,30,320L0,320Z"></path>
</svg>